<svg width="7" height="7" viewBox="0 0 7 7" fill="none" xmlns="http://www.w3.org/2000/svg">
<path d="M3.49998 0.687499C3.28931 0.687385 3.0793 0.71097 2.87391 0.757811C2.86353 0.759965 2.85394 0.764892 2.84614 0.772067C2.83834 0.779242 2.83264 0.788398 2.82963 0.798558C2.82663 0.808718 2.82643 0.819503 2.82907 0.829766C2.83171 0.840028 2.83708 0.849382 2.84461 0.856834L6.14314 4.15449C6.1506 4.16202 6.15995 4.1674 6.17021 4.17003C6.18048 4.17267 6.19126 4.17247 6.20142 4.16947C6.21158 4.16646 6.22074 4.16076 6.22791 4.15296C6.23509 4.14517 6.24001 4.13557 6.24217 4.12519C6.33608 3.71329 6.33599 3.28553 6.24191 2.87366C6.14782 2.4618 5.96216 2.07642 5.69871 1.74615C5.43526 1.41588 5.1008 1.14921 4.72015 0.965934C4.3395 0.782658 3.92245 0.68749 3.49998 0.687499ZM0.856818 2.84551C0.849366 2.83797 0.840012 2.8326 0.829749 2.82997C0.819487 2.82733 0.808702 2.82752 0.798542 2.83053C0.788382 2.83354 0.779226 2.83924 0.772051 2.84704C0.764876 2.85483 0.759949 2.86443 0.757795 2.8748C0.651548 3.33897 0.66489 3.82251 0.796568 4.28011C0.928246 4.73771 1.17395 5.15439 1.51065 5.49109C1.84735 5.82779 2.26403 6.07349 2.72163 6.20517C3.17923 6.33685 3.66277 6.35019 4.12693 6.24395C4.13731 6.24179 4.1469 6.23686 4.1547 6.22969C4.1625 6.22251 4.1682 6.21336 4.17121 6.2032C4.17421 6.19304 4.17441 6.18225 4.17177 6.17199C4.16913 6.16173 4.16376 6.15237 4.15623 6.14492L0.856818 2.84551Z" fill="#505050"/>
</svg>
