<svg width="32" height="31" viewBox="0 0 32 31" fill="none" xmlns="http://www.w3.org/2000/svg">
<g clip-path="url(#clip0_78:135)">
<path d="M31.1978 15.857C31.1978 14.8034 31.1123 13.744 30.9301 12.7075H16.31V18.6763H24.6822C24.3348 20.6013 23.2185 22.3042 21.5839 23.3863V27.2592H26.5788C29.5119 24.5596 31.1978 20.5728 31.1978 15.857Z" fill="#4285F4"/>
<path d="M16.31 31.001C20.4904 31.001 24.0158 29.6285 26.5845 27.2592L21.5896 23.3863C20.1999 24.3317 18.4059 24.8671 16.3157 24.8671C12.272 24.8671 8.84333 22.139 7.61313 18.4712H2.4588V22.4637C5.09007 27.6977 10.4494 31.001 16.31 31.001V31.001Z" fill="#34A853"/>
<path d="M7.60745 18.4712C6.95817 16.5462 6.95817 14.4617 7.60745 12.5366V8.54416H2.45881C0.260394 12.9239 0.260394 18.0839 2.45881 22.4637L7.60745 18.4712V18.4712Z" fill="#FBBC04"/>
<path d="M16.31 6.13498C18.5198 6.10081 20.6556 6.93233 22.256 8.4587L26.6813 4.03338C23.8792 1.40211 20.1601 -0.0445186 16.31 0.00104453C10.4494 0.00104453 5.09007 3.30437 2.4588 8.54413L7.60743 12.5366C8.83194 8.86307 12.2663 6.13498 16.31 6.13498V6.13498Z" fill="#EA4335"/>
</g>
<defs>
<clipPath id="clip0_78:135">
<path d="M0.5 15C0.5 6.71573 7.21573 0 15.5 0H16.5C24.7843 0 31.5 6.71573 31.5 15V16C31.5 24.2843 24.7843 31 16.5 31H15.5C7.21573 31 0.5 24.2843 0.5 16V15Z" fill="white"/>
</clipPath>
</defs>
</svg>
