<svg width="22" height="23" viewBox="0 0 22 23" fill="none" xmlns="http://www.w3.org/2000/svg">
<path d="M15.7232 13.5956C14.6071 13.9637 12.948 14.1766 11.1726 14.1766C9.39722 14.1766 7.74247 13.9637 6.62207 13.5956C6.19977 13.4581 5.78608 13.8307 5.85934 14.2742C6.19977 16.3678 8.93182 17.8226 11.1726 17.8226C13.4134 17.8226 16.1412 16.3633 16.4859 14.2742C16.5549 13.8395 16.1541 13.4581 15.7232 13.5956ZM9.13867 11.4266C9.33258 11.4799 9.53512 11.3601 9.59114 11.1605L10.4271 8.0601C10.6684 7.1597 10.1082 6.23712 9.18607 6.08631C8.38455 5.95325 7.61751 6.52099 7.39774 7.32381L7.31155 7.63873L7.0056 7.55446C6.22131 7.34599 5.35947 7.74519 5.07075 8.53027C4.73894 9.42623 5.2345 10.3887 6.11358 10.6238L9.13867 11.4266ZM17.2745 8.53027C16.9858 7.74962 16.1239 7.34599 15.3397 7.55446L15.0337 7.63873L14.9475 7.32381C14.7321 6.52099 13.965 5.95325 13.1592 6.08631C12.237 6.23712 11.6768 7.1597 11.9181 8.0601L12.7541 11.1605C12.8058 11.3601 13.0084 11.4799 13.2066 11.4266L16.2317 10.6194C17.1108 10.3843 17.6063 9.42623 17.2745 8.53027ZM11.1726 0.439941C5.26897 0.439941 0.485718 5.36333 0.485718 11.4399C0.485718 17.5166 5.26897 22.4399 11.1726 22.4399C17.0763 22.4399 21.8595 17.5166 21.8595 11.4399C21.8595 5.36333 17.0763 0.439941 11.1726 0.439941ZM11.1726 20.3109C6.41954 20.3109 2.55415 16.3323 2.55415 11.4399C2.55415 6.5476 6.41954 2.56897 11.1726 2.56897C15.9257 2.56897 19.7911 6.5476 19.7911 11.4399C19.7911 16.3323 15.9257 20.3109 11.1726 20.3109Z" fill="url(#paint0_linear_14_123)"/>
<defs>
<linearGradient id="paint0_linear_14_123" x1="0.485718" y1="0.439941" x2="21.8595" y2="22.4399" gradientUnits="userSpaceOnUse">
<stop stop-color="#FFA620"/>
<stop offset="1" stop-color="#FF20CE"/>
</linearGradient>
</defs>
</svg>
