<svg width="38" height="38" viewBox="0 0 38 38" xmlns="http://www.w3.org/2000/svg">
  <path d="M27.9444 16.0649L30.288 18.1908C30.4074 18.3265 30.4817 18.4977 30.5 18.6797C30.4849 18.8382 30.4284 18.9897 30.3367 19.1181L29.4818 20.0947C29.3504 20.2173 29.1843 20.2935 29.0078 20.3125C28.853 20.2962 28.7053 20.2379 28.5797 20.1435L27.9444 19.5693V28.1875C27.9444 28.5356 27.8098 28.8694 27.5702 29.1156C27.3306 29.3617 27.0056 29.5 26.6667 29.5H11.3369C10.998 29.5 10.673 29.3617 10.4334 29.1156C10.1938 28.8694 10.0591 28.5356 10.0591 28.1875V19.5697L9.42425 20.1439C9.29926 20.2384 9.15182 20.2966 8.9974 20.3125C8.81927 20.2941 8.65147 20.2179 8.51823 20.0951L7.66332 19.1194C7.5653 18.9942 7.50816 18.8405 7.5 18.6801C7.50933 18.4964 7.58409 18.3227 7.71003 18.192L17.9323 8.92246C18.183 8.68908 18.6594 8.5 19 8.5C19.3406 8.5 19.8186 8.68908 20.0693 8.92246L24.1111 12.588V10.4688C24.1111 10.2947 24.1784 10.1278 24.2982 10.0047C24.4181 9.88164 24.5806 9.8125 24.75 9.8125H27.3056C27.475 9.8125 27.6375 9.88164 27.7573 10.0047C27.8771 10.1278 27.9444 10.2947 27.9444 10.4688V16.0649Z"/>
  </svg>
  
  