<svg width="22" height="23" viewBox="0 0 42 42" fill="none" xmlns="http://www.w3.org/2000/svg">
<path d="M21.2343 0.233398C9.93064 0.233398 0.772217 9.44685 0.772217 20.8184C0.772217 32.19 9.93064 41.4034 21.2343 41.4034C32.5379 41.4034 41.6963 32.19 41.6963 20.8184C41.6963 9.44685 32.5379 0.233398 21.2343 0.233398ZM21.2343 37.4192C12.1336 37.4192 4.73261 29.9738 4.73261 20.8184C4.73261 11.6631 12.1336 4.2176 21.2343 4.2176C30.3349 4.2176 37.7359 11.6631 37.7359 20.8184C37.7359 29.9738 30.3349 37.4192 21.2343 37.4192ZM14.6336 19.4904C16.094 19.4904 17.2739 18.3034 17.2739 16.8342C17.2739 15.365 16.094 14.1781 14.6336 14.1781C13.1732 14.1781 11.9933 15.365 11.9933 16.8342C11.9933 18.3034 13.1732 19.4904 14.6336 19.4904ZM27.8349 14.1781C26.3745 14.1781 25.1947 15.365 25.1947 16.8342C25.1947 18.3034 26.3745 19.4904 27.8349 19.4904C29.2953 19.4904 30.4752 18.3034 30.4752 16.8342C30.4752 15.365 29.2953 14.1781 27.8349 14.1781ZM28.495 26.1307H13.9735C12.8844 26.1307 11.9933 27.0271 11.9933 28.1228C11.9933 29.2184 12.8844 30.1149 13.9735 30.1149H28.495C29.5841 30.1149 30.4752 29.2184 30.4752 28.1228C30.4752 27.0271 29.5841 26.1307 28.495 26.1307Z" fill="url(#paint0_linear_806_31)"/>
<defs>
<linearGradient id="paint0_linear_806_31" x1="0.772217" y1="0.233398" x2="41.6963" y2="41.4034" gradientUnits="userSpaceOnUse">
<stop stop-color="#FF903D"/>
<stop offset="1" stop-color="#FF39AE"/>
</linearGradient>
</defs>
</svg>

