<svg width="38" height="38" viewBox="0 0 38 38" xmlns="http://www.w3.org/2000/svg">
  <path d="M19 29.5C20.4191 29.5 21.5702 28.3249 21.5702 26.875H16.4298C16.4298 28.3249 17.5809 29.5 19 29.5ZM27.654 23.3596C26.8778 22.5081 25.4253 21.2271 25.4253 17.0312C25.4253 13.8443 23.2364 11.2932 20.2849 10.6673V9.8125C20.2849 9.08775 19.7096 8.5 19 8.5C18.2904 8.5 17.7151 9.08775 17.7151 9.8125V10.6673C14.7636 11.2932 12.5747 13.8443 12.5747 17.0312C12.5747 21.2271 11.1222 22.5081 10.346 23.3596C10.1049 23.6241 9.99802 23.9403 10 24.25C10.0044 24.9227 10.5215 25.5625 11.2898 25.5625H26.7102C27.4785 25.5625 27.996 24.9227 28 24.25C28.002 23.9403 27.8951 23.6237 27.654 23.3596Z"/>
  </svg>