<svg width="38" height="38" viewBox="0 0 38 38" xmlns="http://www.w3.org/2000/svg">
  <path d="M19 19C21.8406 19 24.1429 16.6498 24.1429 13.75C24.1429 10.8502 21.8406 8.5 19 8.5C16.1594 8.5 13.8571 10.8502 13.8571 13.75C13.8571 16.6498 16.1594 19 19 19ZM22.6 20.3125H21.929C21.0371 20.7309 20.0446 20.9688 19 20.9688C17.9554 20.9688 16.967 20.7309 16.071 20.3125H15.4C12.4187 20.3125 10 22.7816 10 25.825V27.5312C10 28.6182 10.8638 29.5 11.9286 29.5H26.0714C27.1362 29.5 28 28.6182 28 27.5312V25.825C28 22.7816 25.5813 20.3125 22.6 20.3125Z"/>
  </svg>
  
  