<svg width="144" height="142" viewBox="0 0 144 142" fill="none" xmlns="http://www.w3.org/2000/svg">
<path d="M0.5 60.875H61.7857V0.125H0.5V60.875ZM20.9286 20.375H41.3571V40.625H20.9286V20.375ZM82.2143 0.125V60.875H143.5V0.125H82.2143ZM123.071 40.625H102.643V20.375H123.071V40.625ZM0.5 141.875H61.7857V81.125H0.5V141.875ZM20.9286 101.375H41.3571V121.625H20.9286V101.375ZM133.286 81.125H143.5V121.625H112.857V111.5H102.643V141.875H82.2143V81.125H112.857V91.25H133.286V81.125ZM133.286 131.75H143.5V141.875H133.286V131.75ZM112.857 131.75H123.071V141.875H112.857V131.75Z" fill="#4A4A4A"/>
</svg>
