<svg width="23" height="23" viewBox="0 0 23 23" fill="none" xmlns="http://www.w3.org/2000/svg">
<path d="M11.5047 0.161865C5.23208 0.161865 0.149872 5.08525 0.149872 11.1619C0.149872 17.2385 5.23208 22.1619 11.5047 22.1619C17.7773 22.1619 22.8595 17.2385 22.8595 11.1619C22.8595 5.08525 17.7773 0.161865 11.5047 0.161865ZM11.5047 20.0328C6.45455 20.0328 2.34758 16.0542 2.34758 11.1619C2.34758 6.26953 6.45455 2.2909 11.5047 2.2909C16.5549 2.2909 20.6618 6.26953 20.6618 11.1619C20.6618 16.0542 16.5549 20.0328 11.5047 20.0328ZM7.84186 10.4522C8.65227 10.4522 9.307 9.81791 9.307 9.03283C9.307 8.24775 8.65227 7.61348 7.84186 7.61348C7.03145 7.61348 6.37672 8.24775 6.37672 9.03283C6.37672 9.81791 7.03145 10.4522 7.84186 10.4522ZM15.1676 7.61348C14.3572 7.61348 13.7024 8.24775 13.7024 9.03283C13.7024 9.81791 14.3572 10.4522 15.1676 10.4522C15.978 10.4522 16.6327 9.81791 16.6327 9.03283C16.6327 8.24775 15.978 7.61348 15.1676 7.61348ZM11.5047 13.2909C9.66413 13.2909 7.93343 14.076 6.75216 15.4465C6.36298 15.899 6.42708 16.5687 6.8941 16.9457C7.36111 17.3183 8.05247 17.2607 8.44165 16.8082C9.20169 15.9256 10.3189 15.4155 11.5047 15.4155C12.6906 15.4155 13.8077 15.9211 14.5678 16.8082C14.9386 17.2385 15.6254 17.3361 16.1153 16.9457C16.5823 16.5687 16.6419 15.899 16.2573 15.4465C15.076 14.076 13.3453 13.2909 11.5047 13.2909Z" fill="url(#paint0_linear_16_160)"/>
<defs>
<linearGradient id="paint0_linear_16_160" x1="0.149872" y1="0.161865" x2="22.8595" y2="22.1619" gradientUnits="userSpaceOnUse">
<stop stop-color="#FF913C"/>
<stop offset="1" stop-color="#FF3BAC"/>
</linearGradient>
</defs>
</svg>
