<svg width="39" height="38" viewBox="0 0 39 38" xmlns="http://www.w3.org/2000/svg">
  <path d="M29.727 15.5001C28.8572 15.4966 28.0254 15.6617 27.2601 15.9646L23.1334 9.12032C23.019 8.9306 22.8595 8.77405 22.6699 8.66551C22.4803 8.55696 22.267 8.49999 22.0501 8.5H18.6501C18.1806 8.5 17.8001 8.89173 17.8001 9.375V10.25C17.8001 10.7333 18.1806 11.125 18.6501 11.125H21.3408L22.1321 12.4375H16.1001V11.5625C16.1001 11.0792 15.7196 10.6875 15.2501 10.6875H10.6039C9.8898 10.6875 9.28758 11.289 9.30038 12.0239C9.31271 12.7372 9.87817 13.3125 10.5751 13.3125H13.1637L11.6009 15.9113C10.8873 15.6471 10.1185 15.502 9.31696 15.5C5.58625 15.4907 2.5219 18.6178 2.50012 22.4582C2.47807 26.3434 5.53106 29.5 9.30012 29.5C12.4686 29.5 15.131 27.2691 15.8859 24.25H18.6501C18.8673 24.25 19.0808 24.1929 19.2706 24.0841C19.4603 23.9753 19.6199 23.8184 19.7342 23.6284L24.3009 16.0343L25.0945 17.3505C23.7422 18.6328 22.8959 20.4721 22.9001 22.515C22.9078 26.2793 25.9759 29.4631 29.6325 29.4996C33.3835 29.5371 36.4421 26.4479 36.4992 22.6092C36.5569 18.7296 33.4963 15.5151 29.727 15.5001ZM12.4211 19.5344C12.9378 20.1102 13.3069 20.8284 13.4646 21.625H11.164L12.4211 19.5344ZM9.30012 26.875C6.95667 26.875 5.05012 24.9124 5.05012 22.5C5.05012 20.0876 6.95667 18.125 9.30012 18.125C9.61191 18.125 9.91562 18.1607 10.2085 18.2267L7.79105 22.2467C7.26612 23.1194 7.87695 24.25 8.87512 24.25H13.1942C12.537 25.7936 11.0393 26.875 9.30012 26.875ZM17.9398 21.625H16.0473C15.8369 19.8883 15.0084 18.3495 13.7957 17.2486L15.1103 15.0625H21.8863L17.9398 21.625ZM29.471 26.8688C27.2909 26.7504 25.5371 24.9169 25.4533 22.6712C25.4102 21.5162 25.8057 20.4554 26.4805 19.649L28.841 23.5639C29.0885 23.9745 29.6126 24.1007 30.0114 23.8459L30.7336 23.3845C31.1325 23.1296 31.2551 22.5902 31.0075 22.1796L28.6452 18.2616C28.9899 18.1708 29.3443 18.1249 29.7001 18.1251C32.0436 18.1251 33.9501 20.0877 33.9501 22.5001C33.9501 24.9905 31.918 27.0017 29.471 26.8688Z"/>
  </svg>